# xmcd
#
# Track frame offsets: 
#        183
#        11428
#        26265
#        39608
#        59670
#        72395
#        87570
#        108328
#        124145
#        135400
#        145778
#        158360
#        171165
#
# Disc length: 2470 seconds
#
# Revision: 2
# Processed by: cddbd v1.5.2PL0 Copyright (c) Steve Scherf et al.
# Submitted via: ExactAudioCopyFreeDBPlugin 1.0
#
DISCID=a909a40d
DTITLE=Various Artist - Lynn Anderson and Friends
DYEAR=1991
DGENRE=Country
TTITLE0=Lynn Anderson - Even Cowgirls Get The Blues
TTITLE1=Lynn Anderson - Cry
TTITLE2=Tanya Tucker - San Antonio Stroll
TTITLE3=Tanya Tucker - Delta Dawn
TTITLE4=Lynn Anderson - (I Never Promised You A) Rose Garden
TTITLE5=Barbara Fairchild - Rocky Top
TTITLE6=Barbara Fairchild - Tip Of My Fingers
TTITLE7=Kathy Mattea - Heart Of The Country
TTITLE8=Kathy Mattea - Street Talk
TTITLE9=Dottie West - Ain't Nothing Like A Woman
TTITLE10=Dottie West - Here Comes My Baby
TTITLE11=Lynn Anderson - I Never Loved Anyone More
TTITLE12=Lynn Anderson - Where's The Fire
EXTD=YEAR: 1991
EXTT0=
EXTT1=
EXTT2=
EXTT3=
EXTT4=
EXTT5=
EXTT6=
EXTT7=
EXTT8=
EXTT9=
EXTT10=
EXTT11=
EXTT12=
PLAYORDER=
